<svg width="860" height="240" viewBox="0 0 860 240" fill="none" xmlns="http://www.w3.org/2000/svg">
  <defs>
    <linearGradient id="jfStroke" x1="24" y1="26" x2="220" y2="212" gradientUnits="userSpaceOnUse">
      <stop stop-color="#0A56D6"/>
      <stop offset="1" stop-color="#26D4DE"/>
    </linearGradient>
    <linearGradient id="jfText" x1="246" y1="72" x2="748" y2="156" gradientUnits="userSpaceOnUse">
      <stop stop-color="#0A56D6"/>
      <stop offset="1" stop-color="#26D4DE"/>
    </linearGradient>
    <filter id="jfGlow" x="-40" y="-30" width="930" height="320" filterUnits="userSpaceOnUse" color-interpolation-filters="sRGB">
      <feFlood flood-opacity="0" result="BackgroundImageFix"/>
      <feBlend mode="normal" in="SourceGraphic" in2="BackgroundImageFix" result="shape"/>
      <feGaussianBlur stdDeviation="28" result="effect1_foregroundBlur"/>
    </filter>
  </defs>

  <g filter="url(#jfGlow)">
    <ellipse cx="432" cy="120" rx="330" ry="68" fill="#1AB8D5" fill-opacity="0.34"/>
  </g>

  <g stroke="url(#jfStroke)" stroke-width="8" stroke-linecap="round" stroke-linejoin="round">
    <path d="M184 80C168 52 138 34 104 34C54 34 14 74 14 124C14 174 54 214 104 214C152 214 191 177 194 130"/>
    <path d="M158 28L210 42L182 84"/>
    <rect x="56" y="64" width="98" height="108" rx="12" fill="none"/>
    <path d="M128 64V94H154"/>
    <path d="M74 95H110"/>
    <path d="M74 115H110"/>
    <path d="M74 135H110"/>
    <path d="M107 124L122 139L158 101"/>
  </g>

  <text x="246" y="152" font-family="Avenir Next, Segoe UI, Arial, sans-serif" font-size="112" font-weight="700" fill="url(#jfText)">
    JobFlow
  </text>
</svg>
